<svg width="634" height="129" viewBox="0 0 634 129" fill="none" xmlns="http://www.w3.org/2000/svg">
<path d="M441.512 47.1951H452.634V59.7073H464.561V47.1951H475.39V82.5366H464.561V69.2195H452.634V82.5366H441.512V47.1951Z" fill="#D9D9D9"/>
<path d="M489.585 47.1951H517.61V55.7561H500.341V60.2927H517.61V68.7073H500.341V73.7561H517.61V82.5366H489.585V47.1951Z" fill="#D9D9D9"/>
<path d="M528.366 47.1951H562.098V56.561H550.463V82.5366H539.781V56.561H528.366V47.1951Z" fill="#D9D9D9"/>
<path d="M573.659 47.1951H584.488V82.5366H573.659V47.1951Z" fill="#D9D9D9"/>
<path fill-rule="evenodd" clip-rule="evenodd" d="M633.58 68.6342C631.842 77.0652 624.217 83.4147 615.073 83.4147C604.647 83.4147 596.195 75.1592 596.195 64.9756C596.195 54.7921 604.647 46.5366 615.073 46.5366C624.217 46.5366 631.842 52.8861 633.58 61.3171H623.123C621.768 58.216 618.674 56.0488 615.073 56.0488C610.224 56.0488 606.293 59.9799 606.293 64.8293C606.293 69.6786 610.224 73.6097 615.073 73.6097C618.559 73.6097 621.571 71.5781 622.989 68.6342H633.58Z" fill="#D9D9D9"/>
<path fill-rule="evenodd" clip-rule="evenodd" d="M403.61 83.4147C414.036 83.4147 422.488 75.1592 422.488 64.9756C422.488 54.7921 414.036 46.5366 403.61 46.5366C393.184 46.5366 384.732 54.7921 384.732 64.9756C384.732 75.1592 393.184 83.4147 403.61 83.4147ZM403.61 73.6097C408.459 73.6097 412.39 69.6786 412.39 64.8293C412.39 59.9799 408.459 56.0488 403.61 56.0488C398.76 56.0488 394.829 59.9799 394.829 64.8293C394.829 69.6786 398.76 73.6097 403.61 73.6097Z" fill="#D9D9D9"/>
<path fill-rule="evenodd" clip-rule="evenodd" d="M309.659 36.878C320.085 36.878 328.537 28.6226 328.537 18.439C328.537 8.25543 320.085 0 309.659 0C299.233 0 290.781 8.25543 290.781 18.439C290.781 28.6226 299.233 36.878 309.659 36.878ZM309.659 27.0732C314.508 27.0732 318.439 23.142 318.439 18.2927C318.439 13.4434 314.508 9.51221 309.659 9.51221C304.809 9.51221 300.878 13.4434 300.878 18.2927C300.878 23.142 304.809 27.0732 309.659 27.0732Z" fill="#D9D9D9"/>
<path d="M397.829 0.804871H386.195V35.9268H397.829V0.804871Z" fill="#D9D9D9"/>
<path d="M421.098 0.878113H409.463V36.0001H421.098V0.878113Z" fill="#D9D9D9"/>
<path d="M303.878 93.8049H292.244V128.927H303.878V93.8049Z" fill="#D9D9D9"/>
<path d="M327.146 93.878H315.512V129H327.146V93.878Z" fill="#D9D9D9"/>
<path d="M350.854 47.4146H339.219V82.5366H350.854V47.4146Z" fill="#D9D9D9"/>
<path d="M374.122 47.4877H362.488V82.6097H374.122V47.4877Z" fill="#D9D9D9"/>
<path d="M386.049 117.073V128.707H421.171V117.073H386.049Z" fill="#D9D9D9"/>
<path d="M386.122 93.8049V105.439H421.244V93.8049H386.122Z" fill="#D9D9D9"/>
<path d="M292.244 70.6829V82.3171H327.366V70.6829H292.244Z" fill="#D9D9D9"/>
<path d="M292.317 47.4147V59.0488H327.439V47.4147H292.317Z" fill="#D9D9D9"/>
<path d="M183.177 84.0208H213.449C213.449 89.0661 214.624 93.022 216.975 95.8886C219.326 98.7553 222.851 100.189 227.553 100.189C232.139 100.189 235.608 98.8126 237.959 96.0606C240.367 93.3087 241.571 89.5821 241.571 84.8808C241.571 75.0196 235.723 70.089 224.027 70.089H198.141L222.221 28.1216H193.325V0H270.294L243.549 44.8914V45.4074L244.064 45.5794C252.263 47.7007 258.914 52.4019 264.016 59.6832C269.176 66.9644 271.756 75.0769 271.756 84.0208C271.756 91.99 269.778 99.3859 265.822 106.208C261.866 112.974 256.477 118.363 249.654 122.376C242.889 126.39 235.522 128.396 227.553 128.396C219.526 128.396 212.102 126.39 205.279 122.376C198.514 118.363 193.125 112.974 189.111 106.208C185.155 99.3859 183.177 91.99 183.177 84.0208Z" fill="white"/>
<path d="M0 0H31.1316L51.4273 77.6569C52.3446 81.2688 53.0612 84.8521 53.5772 88.4067H54.2652C54.6092 85.2534 55.2399 81.6702 56.1572 77.6569L76.4529 0H100.189L121.344 77.6569C122.376 80.8102 123.036 84.3935 123.322 88.4067H124.01C124.469 84.3935 124.985 81.0395 125.558 78.3449L146.37 0H177.673L143.36 125.73H107.412L89.6107 57.1892C89.3814 56.1572 88.9801 54.1792 88.4067 51.2553H87.8907C87.5467 53.0326 87.0021 55.0105 86.2568 57.1892L68.713 125.73H34.1415L0 0Z" fill="white"/>
</svg>
