<svg width="272" height="236" viewBox="0 0 272 236" fill="none" xmlns="http://www.w3.org/2000/svg">
<path d="M183.177 84.0208H213.449C213.449 89.0661 214.624 93.022 216.975 95.8886C219.325 98.7553 222.851 100.189 227.553 100.189C232.139 100.189 235.608 98.8126 237.958 96.0606C240.366 93.3087 241.57 89.5821 241.57 84.8808C241.57 75.0196 235.722 70.089 224.027 70.089H198.141L222.221 28.1216H193.325V0H270.294L243.548 44.8914V45.4074L244.064 45.5794C252.263 47.7007 258.913 52.4019 264.016 59.6832C269.176 66.9644 271.756 75.0769 271.756 84.0208C271.756 91.99 269.778 99.3859 265.822 106.208C261.866 112.974 256.477 118.363 249.654 122.376C242.889 126.39 235.522 128.396 227.553 128.396C219.526 128.396 212.101 126.39 205.279 122.376C198.514 118.363 193.124 112.974 189.111 106.208C185.155 99.3859 183.177 91.99 183.177 84.0208Z" fill="#B4B4B4"/>
<path d="M0 0H31.1316L51.4273 77.6569C52.3446 81.2688 53.0612 84.8521 53.5772 88.4067H54.2652C54.6092 85.2534 55.2399 81.6702 56.1572 77.6569L76.4529 0H100.189L121.344 77.6569C122.376 80.8102 123.036 84.3935 123.322 88.4067H124.01C124.469 84.3935 124.985 81.0395 125.558 78.3449L146.37 0H177.673L143.36 125.73H107.412L89.6107 57.1892C89.3814 56.1572 88.9801 54.1792 88.4067 51.2553H87.8907C87.5467 53.0326 87.0021 55.0105 86.2568 57.1892L68.713 125.73H34.1415L0 0Z" fill="#B4B4B4"/>
<path d="M119.601 170.844H128.425V180.772H137.889V170.844H146.482V198.886H137.889V188.32H128.425V198.886H119.601V170.844Z" fill="#B4B4B4"/>
<path d="M157.745 170.844H179.982V177.637H166.28V181.236H179.982V187.913H166.28V191.919H179.982V198.886H157.745V170.844Z" fill="#B4B4B4"/>
<path d="M188.516 170.844H215.281V178.275H206.05V198.886H197.573V178.275H188.516V170.844Z" fill="#B4B4B4"/>
<path d="M224.454 170.844H233.047V198.886H224.454V170.844Z" fill="#B4B4B4"/>
<path fill-rule="evenodd" clip-rule="evenodd" d="M272 187.855C270.621 194.545 264.571 199.583 257.316 199.583C249.043 199.583 242.337 193.033 242.337 184.952C242.337 176.872 249.043 170.321 257.316 170.321C264.571 170.321 270.621 175.36 272 182.049H263.703C262.628 179.589 260.173 177.869 257.316 177.869C253.468 177.869 250.349 180.988 250.349 184.836C250.349 188.684 253.468 191.803 257.316 191.803C260.082 191.803 262.472 190.191 263.596 187.855H272Z" fill="#B4B4B4"/>
<path fill-rule="evenodd" clip-rule="evenodd" d="M89.5265 199.583C97.7992 199.583 104.506 193.033 104.506 184.952C104.506 176.872 97.7992 170.321 89.5265 170.321C81.2537 170.321 74.5474 176.872 74.5474 184.952C74.5474 193.033 81.2537 199.583 89.5265 199.583ZM89.5265 191.803C93.3743 191.803 96.4935 188.684 96.4935 184.836C96.4935 180.988 93.3743 177.869 89.5265 177.869C85.6787 177.869 82.5595 180.988 82.5595 184.836C82.5595 188.684 85.6787 191.803 89.5265 191.803Z" fill="#B4B4B4"/>
<path fill-rule="evenodd" clip-rule="evenodd" d="M14.9791 162.658C23.2519 162.658 29.9582 156.107 29.9582 148.027C29.9582 139.947 23.2519 133.396 14.9791 133.396C6.70638 133.396 0 139.947 0 148.027C0 156.107 6.70638 162.658 14.9791 162.658ZM14.9791 154.878C18.8269 154.878 21.9462 151.759 21.9462 147.911C21.9462 144.063 18.8269 140.944 14.9791 140.944C11.1313 140.944 8.0121 144.063 8.0121 147.911C8.0121 151.759 11.1313 154.878 14.9791 154.878Z" fill="#B4B4B4"/>
<path d="M84.9398 134.035H75.7085V161.903H84.9398V134.035Z" fill="#B4B4B4"/>
<path d="M103.402 134.093H94.1711V161.961H103.402V134.093Z" fill="#B4B4B4"/>
<path d="M10.3925 207.827H1.16113V235.695H10.3925V207.827Z" fill="#B4B4B4"/>
<path d="M28.8553 207.885H19.624V235.753H28.8553V207.885Z" fill="#B4B4B4"/>
<path d="M47.6661 171.018H38.4348V198.886H47.6661V171.018Z" fill="#B4B4B4"/>
<path d="M66.1288 171.076H56.8975V198.944H66.1288V171.076Z" fill="#B4B4B4"/>
<path d="M75.5923 226.29V235.521H103.46V226.29H75.5923Z" fill="#B4B4B4"/>
<path d="M75.6504 207.827V217.059H103.519V207.827H75.6504Z" fill="#B4B4B4"/>
<path d="M1.16113 189.481L1.16113 198.712H29.0293V189.481H1.16113Z" fill="#B4B4B4"/>
<path d="M1.21899 171.018L1.21899 180.25H29.0871V171.018H1.21899Z" fill="#B4B4B4"/>
</svg>
